<svg xmlns="http://www.w3.org/2000/svg" viewBox="0 0 800 600" width="800" height="600" role="img" aria-label="Executive Collection">
<defs>
  <radialGradient id="bg" cx="52%" cy="40%" r="78%">
    <stop offset="0%" stop-color="#1D1B16"/><stop offset="58%" stop-color="#101010"/>
    <stop offset="100%" stop-color="#070707"/></radialGradient>
  <radialGradient id="glow" cx="50%" cy="42%" r="52%">
    <stop offset="0%" stop-color="#C9A14A" stop-opacity=".18"/>
    <stop offset="100%" stop-color="#C9A14A" stop-opacity="0"/></radialGradient>
  <linearGradient id="metal" gradientUnits="userSpaceOnUse" x1="0" y1="0" x2="900" y2="900">
    <stop offset="0%" stop-color="#8A6A22"/><stop offset="28%" stop-color="#F2DFA8"/>
    <stop offset="55%" stop-color="#C9A14A"/><stop offset="78%" stop-color="#F2DFA8"/>
    <stop offset="100%" stop-color="#8A6A22"/></linearGradient>
  <filter id="soft" x="-40%" y="-40%" width="180%" height="180%">
    <feGaussianBlur stdDeviation="26"/></filter>
</defs>
<rect width="800" height="600" fill="url(#bg)"/><rect width="800" height="600" fill="url(#glow)"/>
<circle cx="509" cy="103" r="1" fill="#C9A14A" opacity="0.13"/><circle cx="286" cy="584" r="1" fill="#C9A14A" opacity="0.09"/><circle cx="327" cy="191" r="1" fill="#C9A14A" opacity="0.13"/><circle cx="685" cy="449" r="1" fill="#C9A14A" opacity="0.05"/><circle cx="731" cy="75" r="1" fill="#C9A14A" opacity="0.11"/><circle cx="539" cy="12" r="1.5" fill="#C9A14A" opacity="0.09"/><circle cx="765" cy="74" r="1" fill="#C9A14A" opacity="0.04"/><circle cx="96" cy="161" r="1" fill="#C9A14A" opacity="0.10"/><circle cx="236" cy="537" r="1" fill="#C9A14A" opacity="0.06"/><circle cx="478" cy="365" r="1" fill="#C9A14A" opacity="0.11"/><circle cx="18" cy="406" r="1" fill="#C9A14A" opacity="0.11"/><circle cx="166" cy="100" r="1" fill="#C9A14A" opacity="0.07"/><circle cx="278" cy="316" r="1" fill="#C9A14A" opacity="0.10"/><circle cx="528" cy="492" r="1" fill="#C9A14A" opacity="0.11"/><circle cx="718" cy="564" r="1.5" fill="#C9A14A" opacity="0.12"/><circle cx="607" cy="433" r="1" fill="#C9A14A" opacity="0.04"/><circle cx="709" cy="442" r="1" fill="#C9A14A" opacity="0.07"/><circle cx="583" cy="316" r="1.5" fill="#C9A14A" opacity="0.05"/><circle cx="596" cy="1" r="1.5" fill="#C9A14A" opacity="0.10"/><circle cx="270" cy="389" r="1" fill="#C9A14A" opacity="0.11"/><circle cx="336" cy="185" r="1.5" fill="#C9A14A" opacity="0.05"/><circle cx="595" cy="167" r="1" fill="#C9A14A" opacity="0.11"/><circle cx="678" cy="462" r="1.5" fill="#C9A14A" opacity="0.08"/><circle cx="522" cy="25" r="1" fill="#C9A14A" opacity="0.05"/><circle cx="727" cy="292" r="1.5" fill="#C9A14A" opacity="0.06"/><circle cx="500" cy="489" r="1.5" fill="#C9A14A" opacity="0.13"/><circle cx="329" cy="135" r="1.5" fill="#C9A14A" opacity="0.05"/><circle cx="471" cy="118" r="1" fill="#C9A14A" opacity="0.09"/><circle cx="236" cy="254" r="1" fill="#C9A14A" opacity="0.06"/><circle cx="1" cy="392" r="1" fill="#C9A14A" opacity="0.09"/><circle cx="165" cy="2" r="1" fill="#C9A14A" opacity="0.13"/><circle cx="343" cy="67" r="1.5" fill="#C9A14A" opacity="0.06"/><circle cx="369" cy="267" r="1.5" fill="#C9A14A" opacity="0.15"/><circle cx="1" cy="241" r="1.5" fill="#C9A14A" opacity="0.05"/><circle cx="594" cy="425" r="1" fill="#C9A14A" opacity="0.14"/><circle cx="422" cy="186" r="1" fill="#C9A14A" opacity="0.09"/><circle cx="375" cy="338" r="1.5" fill="#C9A14A" opacity="0.06"/><circle cx="681" cy="282" r="1" fill="#C9A14A" opacity="0.05"/><circle cx="459" cy="344" r="1" fill="#C9A14A" opacity="0.15"/><circle cx="97" cy="170" r="1" fill="#C9A14A" opacity="0.07"/><circle cx="377" cy="198" r="1" fill="#C9A14A" opacity="0.14"/><circle cx="30" cy="405" r="1" fill="#C9A14A" opacity="0.07"/><circle cx="445" cy="284" r="1.5" fill="#C9A14A" opacity="0.05"/><circle cx="204" cy="214" r="1" fill="#C9A14A" opacity="0.14"/><circle cx="164" cy="161" r="1.5" fill="#C9A14A" opacity="0.10"/><circle cx="67" cy="9" r="1" fill="#C9A14A" opacity="0.04"/>
<g transform="translate(0,120)"><ellipse cx="300" cy="340" rx="145" ry="142" fill="none" stroke="url(#metal)" stroke-width="30"/><path d="M255 205 Q300 172 345 205" fill="none" stroke="url(#metal)" stroke-width="12" stroke-linecap="round"/><path d="M256 176 L300 128 L344 176 L300 226 Z" fill="url(#metal)"/></g>
<rect x="24" y="24" width="752" height="552" fill="none" stroke="#C9A14A" stroke-opacity=".14"/>
<line x1="60" y1="450" x2="740" y2="450" stroke="#C9A14A" stroke-opacity=".3"/>
</svg>